<?xml version="1.0" encoding="UTF-8" standalone="no"?>
<!-- Created with Inkscape (http://www.inkscape.org/) -->

<svg
   xmlns:dc="http://purl.org/dc/elements/1.1/"
   xmlns:cc="http://creativecommons.org/ns#"
   xmlns:rdf="http://www.w3.org/1999/02/22-rdf-syntax-ns#"
   xmlns:svg="http://www.w3.org/2000/svg"
   xmlns="http://www.w3.org/2000/svg"
   xmlns:inkscape="http://www.inkscape.org/namespaces/inkscape"
   version="1.1"
   width="808.72498"
   height="196"
   id="svg2"
   xml:space="preserve"><metadata
     id="metadata8"><rdf:RDF><cc:Work
         rdf:about=""><dc:format>image/svg+xml</dc:format><dc:type
           rdf:resource="http://purl.org/dc/dcmitype/StillImage" /></cc:Work></rdf:RDF></metadata><defs
     id="defs6"><clipPath
       id="clipPath18"><path
         d="M 0,1567.95 0,0 l 6469.76,0 0,1567.95 -6469.76,0 z"
         inkscape:connector-curvature="0"
         id="path20" /></clipPath><clipPath
       id="clipPath40"><path
         d="m 6253.68,1567.11 -573.64,-832.153 -256.72,0 573.63,832.153 256.73,0 z"
         inkscape:connector-curvature="0"
         id="path42" /></clipPath><linearGradient
       x1="0"
       y1="0"
       x2="1"
       y2="0"
       id="linearGradient44"
       gradientUnits="userSpaceOnUse"
       gradientTransform="matrix(83.0361,0,0,-83.0361,542.332,115.104)"
       spreadMethod="pad"><stop
         id="stop46"
         style="stop-color:#398b27;stop-opacity:1"
         offset="0" /><stop
         id="stop48"
         style="stop-color:#6eb223;stop-opacity:1"
         offset="0.23312899" /><stop
         id="stop50"
         style="stop-color:#a6d71c;stop-opacity:1"
         offset="0.51533699" /><stop
         id="stop52"
         style="stop-color:#6db123;stop-opacity:1"
         offset="0.785276" /><stop
         id="stop54"
         style="stop-color:#3d8f27;stop-opacity:1"
         offset="1" /></linearGradient><clipPath
       id="clipPath62"><path
         d="m 5666.53,1210.94 -237.33,356.17 261.86,-0.16 104.38,-167.06 -128.91,-188.95 z"
         inkscape:connector-curvature="0"
         id="path64" /></clipPath><linearGradient
       x1="0"
       y1="0"
       x2="1"
       y2="0"
       id="linearGradient66"
       gradientUnits="userSpaceOnUse"
       gradientTransform="matrix(36.624,0,0,-36.624,542.92,138.903)"
       spreadMethod="pad"><stop
         id="stop68"
         style="stop-color:#2757a0;stop-opacity:1"
         offset="0" /><stop
         id="stop70"
         style="stop-color:#367ac2;stop-opacity:1"
         offset="0.58895701" /><stop
         id="stop72"
         style="stop-color:#3991d0;stop-opacity:1"
         offset="1" /></linearGradient><clipPath
       id="clipPath80"><path
         d="m 6015.37,1099.92 244.2,-365.334 -261.27,-0.703 -113.41,176.539 130.48,189.498 z"
         inkscape:connector-curvature="0"
         id="path82" /></clipPath><linearGradient
       x1="0"
       y1="0"
       x2="1"
       y2="0"
       id="linearGradient84"
       gradientUnits="userSpaceOnUse"
       gradientTransform="matrix(37.4678,0,0,-37.4678,588.489,91.69)"
       spreadMethod="pad"><stop
         id="stop86"
         style="stop-color:#ec008c;stop-opacity:1"
         offset="0" /><stop
         id="stop88"
         style="stop-color:#af0d68;stop-opacity:1"
         offset="0.51533699" /><stop
         id="stop90"
         style="stop-color:#7d154b;stop-opacity:1"
         offset="1" /></linearGradient><clipPath
       id="clipPath98"><path
         d="M 0,1567.95 0,0 l 6469.76,0 0,1567.95 -6469.76,0 z"
         inkscape:connector-curvature="0"
         id="path100" /></clipPath></defs><g
     transform="matrix(1.25,0,0,-1.25,0,196)"
     id="g10"><g
       transform="scale(0.1,0.1)"
       id="g12"><g
         id="g14"><g
           clip-path="url(#clipPath18)"
           id="g16"><path
             d="m 0,1148.25 0,2.39 c 0,228.8 171.395,416.16 415.105,416.16 148.45,0 238.075,-51.72 315.075,-125.39 l -90.731,-104.48 c -64.398,59.73 -133.504,100.01 -225.496,100.01 -152.933,0 -265.57,-126.56 -265.57,-284.05 l 0,-2.25 c 0,-157.578 111.496,-285.331 265.57,-285.331 98.875,0 162.192,39.121 231.18,103.511 l 90.859,-92 C 652.008,789.445 560.027,734.254 409.418,734.254 174.801,734.254 0,917.066 0,1148.25"
             inkscape:connector-curvature="0"
             id="path22"
             style="fill:#4f4c4c;fill-opacity:1;fill-rule:nonzero;stroke:none" /><path
             d="m 1491.3,1148.82 0,2.29 c 0,156.56 -113.99,286.72 -274.03,286.72 -160.12,0 -271.825,-127.89 -271.825,-284.43 l 0,-2.29 c 0,-156.598 114.015,-285.622 274.125,-285.622 160.02,0 271.73,126.739 271.73,283.332 z m -694.304,0 0,2.29 c 0,226.9 174.879,416.84 422.574,416.84 247.57,0 420.27,-187.67 420.27,-414.55 l 0,-2.29 c 0,-226.833 -175.03,-416.856 -422.57,-416.856 -247.637,0 -420.274,187.676 -420.274,414.566"
             inkscape:connector-curvature="0"
             id="path24"
             style="fill:#4f4c4c;fill-opacity:1;fill-rule:nonzero;stroke:none" /><path
             d="m 1770.84,1567.56 135.69,0 446.45,-576.13 0,576.13 144.07,0 0,-833.306 -122.66,0 -459.56,592.796 0,-592.796 -143.99,0 0,833.306"
             inkscape:connector-curvature="0"
             id="path26"
             style="fill:#4f4c4c;fill-opacity:1;fill-rule:nonzero;stroke:none" /><path
             d="m 2907.83,1431.86 -264.24,0 0,135.7 676.12,0 0,-135.7 -264.26,0 0,-697.606 -147.62,0 0,697.606"
             inkscape:connector-curvature="0"
             id="path28"
             style="fill:#4f4c4c;fill-opacity:1;fill-rule:nonzero;stroke:none" /><path
             d="m 3468.41,1567.91 618.15,0 0,-130.93 -471.7,0 0,-216.84 417.89,0 0,-130.99 -417.89,0 0,-223.99 477.54,0 0,-130.906 -623.99,0 0,833.656"
             inkscape:connector-curvature="0"
             id="path30"
             style="fill:#4f4c4c;fill-opacity:1;fill-rule:nonzero;stroke:none" /><path
             d="m 4198.13,1148.54 0,2.43 c 0,225.5 172.66,416.59 415.45,416.59 140.52,0 226.79,-39.2 309.67,-109.19 l -89.84,-107.14 c -62.13,52.93 -123.13,86.34 -225.56,86.34 -148.41,0 -261.26,-130.13 -261.26,-284.36 l 0,-2.24 c 0,-165.818 109.4,-287.724 273.96,-287.724 75.95,0 145.01,24.109 194.44,60.887 l 0,150.837 -206.01,0 0,123.09 343.01,0 0,-338.275 c -79.29,-67.953 -193.35,-125.531 -335.97,-125.531 -252.15,0 -417.89,179.531 -417.89,414.286"
             inkscape:connector-curvature="0"
             id="path32"
             style="fill:#4f4c4c;fill-opacity:1;fill-rule:nonzero;stroke:none" /><path
             d="m 5136.87,734.254 146.398,0 0,833.305 -146.398,0 0,-833.305 z"
             inkscape:connector-curvature="0"
             id="path34"
             style="fill:#4f4c4c;fill-opacity:1;fill-rule:nonzero;stroke:none" /></g></g><g
         id="g36"><g
           clip-path="url(#clipPath40)"
           id="g38"><path
             d="m 6253.68,1567.11 -573.64,-832.153 -256.72,0 573.63,832.153 256.73,0"
             inkscape:connector-curvature="0"
             id="path56"
             style="fill:url(#linearGradient44);fill-opacity:1;fill-rule:nonzero;stroke:none" /></g></g><g
         id="g58"><g
           clip-path="url(#clipPath62)"
           id="g60"><path
             d="m 5666.53,1210.94 -237.33,356.17 261.86,-0.16 104.38,-167.06 -128.91,-188.95"
             inkscape:connector-curvature="0"
             id="path74"
             style="fill:url(#linearGradient66);fill-opacity:1;fill-rule:nonzero;stroke:none" /></g></g><g
         id="g76"><g
           clip-path="url(#clipPath80)"
           id="g78"><path
             d="m 6015.37,1099.92 244.2,-365.334 -261.27,-0.703 -113.41,176.539 130.48,189.498"
             inkscape:connector-curvature="0"
             id="path92"
             style="fill:url(#linearGradient84);fill-opacity:1;fill-rule:nonzero;stroke:none" /></g></g><g
         id="g94"><g
           clip-path="url(#clipPath98)"
           id="g96"><path
             d="m 36.6562,131.5 0,149.328 -33.11714,0 0,20.043 33.11714,0 0,72.879 21.8711,0 0,-72.879 80.0347,0 0,-20.043 -80.0347,0 0,-147.168 c 0,-32.57 19.2461,-44.1288 45.6097,-44.1288 11.168,0 20.57,2.1485 33.551,7.9297 l 0,-20.4726 c -11.633,-5.4571 -22.84,-8.1094 -37.129,-8.1094 -35.3051,0 -63.9028,19.1797 -63.9028,62.6211"
             inkscape:connector-curvature="0"
             id="path102"
             style="fill:#4f4c4c;fill-opacity:1;fill-rule:nonzero;stroke:none" /><path
             d="m 361.148,197.629 c -3.136,46.082 -29.539,88.492 -81.836,88.492 -45.136,0 -80.027,-37.98 -84.023,-88.492 l 165.859,0 z m -189.128,-11.188 0,0.918 c 0,66.18 46.503,118.961 108.199,118.961 63.922,0 104.605,-51.91 104.605,-119.39 0,-4 0,-5.41 -0.461,-8.969 l -189.074,0 c 3.996,-56.723 44.707,-89.9024 89.391,-89.9024 35.355,0 59.461,15.6714 78.242,35.8204 L 378.125,110.48 C 354.867,85.4219 327.613,67.5312 283.824,67.5312 223.91,67.5312 172.02,115.398 172.02,186.441"
             inkscape:connector-curvature="0"
             id="path104"
             style="fill:#4f4c4c;fill-opacity:1;fill-rule:nonzero;stroke:none" /><path
             d="m 433.004,186.012 0,0.918 c 0,63.91 50.957,119.39 116.219,119.39 42.91,0 69.73,-19.711 91.222,-42.09 l -15.656,-16.089 c -19.676,20.148 -42.031,37.539 -76.016,37.539 -51.859,0 -92.07,-43.379 -92.07,-97.828 l 0,-0.922 c 0,-55 41.574,-98.8714 93.871,-98.8714 32.184,0 57.215,16.6404 76.461,38.0314 L 642.23,112.648 C 618.953,86.3281 591.238,67.5312 549.223,67.5312 c -65.707,0 -116.219,54.5198 -116.219,118.4808"
             inkscape:connector-curvature="0"
             id="path106"
             style="fill:#4f4c4c;fill-opacity:1;fill-rule:nonzero;stroke:none" /><path
             d="m 694.879,399.25 21.941,0 0,-140.852 c 15.196,26.911 40.657,47.922 82.219,47.922 57.68,0 91.191,-39.429 91.191,-93.89 l 0,-139.5394 -21.894,0 0,135.4804 c 0,46.961 -26.363,77.75 -72.418,77.75 -44.73,0 -79.098,-33.93 -79.098,-81.359 l 0,-131.8714 -21.941,0 0,326.3594"
             inkscape:connector-curvature="0"
             id="path108"
             style="fill:#4f4c4c;fill-opacity:1;fill-rule:nonzero;stroke:none" /><path
             d="m 950.902,300.871 21.973,0 0,-42.473 c 15.184,26.911 40.645,47.922 82.235,47.922 57.63,0 91.2,-39.429 91.2,-93.89 l 0,-139.5394 -21.92,0 0,135.4804 c 0,46.961 -26.37,77.75 -72.43,77.75 -44.67,0 -79.085,-33.93 -79.085,-81.359 l 0,-131.8714 -21.973,0 0,227.9804"
             inkscape:connector-curvature="0"
             id="path110"
             style="fill:#4f4c4c;fill-opacity:1;fill-rule:nonzero;stroke:none" /><path
             d="m 1401.93,186.012 0,0.918 c 0,55 -41.14,98.75 -93.92,98.75 -54.07,0 -92.95,-44.18 -92.95,-97.828 l 0,-0.922 c 0,-55 41.12,-98.8714 93.87,-98.8714 54.11,0 93,44.3004 93,97.9534 z m -210.58,0 0,0.918 c 0,63.91 49.61,119.39 117.58,119.39 67.51,0 116.7,-54.621 116.7,-118.468 l 0,-0.922 c 0,-63.91 -49.66,-119.3988 -117.62,-119.3988 -67.44,0 -116.66,54.5198 -116.66,118.4808"
             inkscape:connector-curvature="0"
             id="path112"
             style="fill:#4f4c4c;fill-opacity:1;fill-rule:nonzero;stroke:none" /><path
             d="m 1469.31,72.8906 21.9102,0 0,326.359 -21.9102,0 0,-326.359 z"
             inkscape:connector-curvature="0"
             id="path114"
             style="fill:#4f4c4c;fill-opacity:1;fill-rule:nonzero;stroke:none" /><path
             d="m 1754.49,186.012 0,0.918 c 0,55 -41.1,98.75 -93.85,98.75 -54.1,0 -93,-44.18 -93,-97.828 l 0,-0.922 c 0,-55 41.17,-98.8714 93.87,-98.8714 54.12,0 92.98,44.3004 92.98,97.9534 z m -210.55,0 0,0.918 c 0,63.91 49.67,119.39 117.57,119.39 67.52,0 116.72,-54.621 116.72,-118.468 l 0,-0.922 c 0,-63.91 -49.65,-119.3988 -117.59,-119.3988 -67.54,0 -116.7,54.5198 -116.7,118.4808"
             inkscape:connector-curvature="0"
             id="path116"
             style="fill:#4f4c4c;fill-opacity:1;fill-rule:nonzero;stroke:none" /><path
             d="m 2027.99,197.629 0,0.922 c 0,52.719 -46.92,86.758 -94.31,86.758 -47.85,0 -88.09,-33.118 -88.09,-86.329 l 0,-0.921 c 0,-51.329 41.16,-87.149 88.09,-87.149 47.39,0 94.31,34.91 94.31,86.719 z M 1832.2,35.332 l 12.97,17.9961 c 27.24,-21.0664 58.55,-32.3086 92.09,-32.3086 52.32,0 89.41,29.9805 89.41,88.6015 l 0,33.008 c -19.7,-28.149 -50.1,-52.7306 -95.26,-52.7306 -54.97,0 -109.49,42.0316 -109.49,107.2926 l 0,0.868 c 0,65.742 54.52,108.261 109.49,108.261 45.61,0 76.47,-24.199 95.26,-50.988 l 0,45.539 21.93,0 0,-192.652 c 0,-33.1292 -10.79,-59.0471 -29.09,-77.3596 -19.71,-19.5703 -49.15,-30.429712 -82.73,-30.429712 -38,0 -73.27,11.621112 -104.58,34.902312"
             inkscape:connector-curvature="0"
             id="path118"
             style="fill:#4f4c4c;fill-opacity:1;fill-rule:nonzero;stroke:none" /><path
             d="m 2309.99,300.871 24.09,0 -98.75,-235.9804 C 2215.2,17.0703 2191.96,0 2159.32,0 c -17.46,0 -29.95,3.19141 -45.15,9.83984 l 7.61,19.28126 c 12.06,-5.832 21.89,-8.4805 38.9,-8.4805 23.66,0 39.34,13.8282 56.3,53.6992 l -109.54,226.5312 25.49,0 94.79,-203.7812 82.27,203.7812"
             inkscape:connector-curvature="0"
             id="path120"
             style="fill:#4f4c4c;fill-opacity:1;fill-rule:nonzero;stroke:none" /><path
             d="m 2540.47,131.5 0,149.328 -33.06,0 0,20.043 33.06,0 0,72.879 21.92,0 0,-72.879 80.02,0 0,-20.043 -80.02,0 0,-147.168 c 0,-32.57 19.25,-44.1288 45.61,-44.1288 11.19,0 20.54,2.1485 33.51,7.9297 l 0,-20.4726 c -11.62,-5.4571 -22.78,-8.1094 -37.1,-8.1094 -35.33,0 -63.94,19.1797 -63.94,62.6211"
             inkscape:connector-curvature="0"
             id="path122"
             style="fill:#4f4c4c;fill-opacity:1;fill-rule:nonzero;stroke:none" /><path
             d="m 2895.4,186.012 0,0.918 c 0,55 -41.14,98.75 -93.92,98.75 -54.05,0 -92.97,-44.18 -92.97,-97.828 l 0,-0.922 c 0,-55 41.12,-98.8714 93.92,-98.8714 54.03,0 92.97,44.3004 92.97,97.9534 z m -210.56,0 0,0.918 c 0,63.91 49.58,119.39 117.59,119.39 67.45,0 116.64,-54.621 116.64,-118.468 l 0,-0.922 c 0,-63.91 -49.61,-119.3988 -117.59,-119.3988 -67.46,0 -116.64,54.5198 -116.64,118.4808"
             inkscape:connector-curvature="0"
             id="path124"
             style="fill:#4f4c4c;fill-opacity:1;fill-rule:nonzero;stroke:none" /><path
             d="m 3293.96,197.629 c -3.11,46.082 -29.45,88.492 -81.74,88.492 -45.19,0 -80.06,-37.98 -84.08,-88.492 l 165.82,0 z m -189.08,-11.188 0,0.918 c 0,66.18 46.49,118.961 108.15,118.961 63.98,0 104.65,-51.91 104.65,-119.39 0,-4 0,-5.41 -0.44,-8.969 l -189.1,0 c 4.02,-56.723 44.69,-89.9024 89.4,-89.9024 35.3,0 59.47,15.6714 78.2,35.8204 l 15.21,-13.399 c -23.21,-25.0581 -50.48,-42.9488 -94.3,-42.9488 -59.91,0 -111.77,47.8668 -111.77,118.9098"
             inkscape:connector-curvature="0"
             id="path126"
             style="fill:#4f4c4c;fill-opacity:1;fill-rule:nonzero;stroke:none" /><path
             d="m 3372.51,300.871 21.93,0 0,-40.633 c 14.78,23.66 35.34,46.082 76.02,46.082 39.76,0 64.36,-22.789 76.96,-49.211 14.72,25.5 39.3,49.211 82.19,49.211 54.08,0 87.64,-38.031 87.64,-95.289 l 0,-138.1404 -21.88,0 0,135.4804 c 0,49.117 -25.54,77.75 -67.53,77.75 -38.47,0 -71.99,-29.391 -71.99,-80.441 l 0,-132.7894 -21.91,0 0,136.7814 c 0,47.437 -25.94,76.449 -66.57,76.449 -40.72,0 -72.93,-35.711 -72.93,-81.793 l 0,-131.4374 -21.93,0 0,227.9804"
             inkscape:connector-curvature="0"
             id="path128"
             style="fill:#4f4c4c;fill-opacity:1;fill-rule:nonzero;stroke:none" /><path
             d="m 3973.71,186.012 0,0.918 c 0,59.859 -41.6,98.379 -89.41,98.379 -47.44,0 -93.03,-39.86 -93.03,-97.95 l 0,-0.918 c 0,-58.562 45.59,-97.8316 93.03,-97.8316 49.65,0 89.41,36.1916 89.41,97.4026 z m -202.98,114.859 21.94,0 0,-50.949 c 19.66,29.976 48.73,56.398 93.84,56.398 55.05,0 110.91,-44.289 110.91,-118.468 l 0,-0.922 c 0,-74.282 -55.86,-119.3988 -110.91,-119.3988 -45.54,0 -75.04,25.9297 -93.84,54.5198 l 0,-120.69944 -21.94,0 0,299.51944"
             inkscape:connector-curvature="0"
             id="path130"
             style="fill:#4f4c4c;fill-opacity:1;fill-rule:nonzero;stroke:none" /><path
             d="m 4242.71,186.012 0,0.918 c 0,55 -41.14,98.75 -93.82,98.75 -54.11,0 -93.01,-44.18 -93.01,-97.828 l 0,-0.922 c 0,-55 41.11,-98.8714 93.87,-98.8714 54.07,0 92.96,44.3004 92.96,97.9534 z m -210.55,0 0,0.918 c 0,63.91 49.59,119.39 117.59,119.39 67.55,0 116.67,-54.621 116.67,-118.468 l 0,-0.922 c 0,-63.91 -49.62,-119.3988 -117.53,-119.3988 -67.54,0 -116.73,54.5198 -116.73,118.4808"
             inkscape:connector-curvature="0"
             id="path132"
             style="fill:#4f4c4c;fill-opacity:1;fill-rule:nonzero;stroke:none" /><path
             d="m 4285.08,300.871 24.61,0 68.77,-200.269 68.93,201.187 17.45,0 68.78,-201.187 68.88,200.269 23.72,0 -83.57,-229.7694 -18.81,0 -67.95,195.3594 -68.41,-195.3594 -18.8,0 -83.6,229.7694"
             inkscape:connector-curvature="0"
             id="path134"
             style="fill:#4f4c4c;fill-opacity:1;fill-rule:nonzero;stroke:none" /><path
             d="m 4842.86,197.629 c -3.12,46.082 -29.5,88.492 -81.82,88.492 -45.13,0 -79.98,-37.98 -83.98,-88.492 l 165.8,0 z m -189.09,-11.188 0,0.918 c 0,66.18 46.44,118.961 108.16,118.961 63.91,0 104.62,-51.91 104.62,-119.39 0,-4 0,-5.41 -0.41,-8.969 l -189.08,0 c 4,-56.723 44.65,-89.9024 89.36,-89.9024 35.34,0 59.42,15.6714 78.23,35.8204 l 15.23,-13.399 c -23.23,-25.0581 -50.51,-42.9488 -94.35,-42.9488 -59.89,0 -111.76,47.8668 -111.76,118.9098"
             inkscape:connector-curvature="0"
             id="path136"
             style="fill:#4f4c4c;fill-opacity:1;fill-rule:nonzero;stroke:none" /><path
             d="m 4921.46,300.871 21.94,0 0,-64.781 c 17.89,40.68 55.85,70.23 101,68.461 l 0,-24.211 -2.24,0 c -52.75,0 -98.76,-39.82 -98.76,-114 l 0,-93.4494 -21.94,0 0,227.9804"
             inkscape:connector-curvature="0"
             id="path138"
             style="fill:#4f4c4c;fill-opacity:1;fill-rule:nonzero;stroke:none" /><path
             d="m 5237.43,300.871 21.84,0 0,-227.9804 -21.84,0 0,227.9804 z m -2.69,89.469 27.22,0 0,-29.93 -27.22,0 0,29.93"
             inkscape:connector-curvature="0"
             id="path140"
             style="fill:#4f4c4c;fill-opacity:1;fill-rule:nonzero;stroke:none" /><path
             d="m 5519.04,186.441 0,0.918 c 0,58.512 -45.62,97.95 -93.03,97.95 -49.62,0 -89.44,-36.188 -89.44,-97.457 l 0,-0.922 c 0,-59.91 41.62,-98.3206 89.44,-98.3206 47.41,0 93.03,39.7106 93.03,97.8316 z m -206.15,-0.429 0,0.918 c 0,74.179 55.91,119.39 110.91,119.39 45.59,0 75.1,-25.98 93.85,-54.621 l 0,147.551 21.87,0 0,-326.3594 -21.87,0 0,50.9884 c -19.62,-29.9298 -48.64,-56.3478 -93.85,-56.3478 -55,0 -110.91,44.2968 -110.91,118.4808"
             inkscape:connector-curvature="0"
             id="path142"
             style="fill:#4f4c4c;fill-opacity:1;fill-rule:nonzero;stroke:none" /><path
             d="m 5778.2,197.629 c -3.15,46.082 -29.49,88.492 -81.81,88.492 -45.17,0 -80.1,-37.98 -84.1,-88.492 l 165.91,0 z m -189.08,-11.188 0,0.918 c 0,66.18 46.4,118.961 108.1,118.961 63.99,0 104.69,-51.91 104.69,-119.39 0,-4 0,-5.41 -0.47,-8.969 l -189.15,0 c 4,-56.723 44.74,-89.9024 89.41,-89.9024 35.39,0 59.51,15.6714 78.22,35.8204 l 15.25,-13.399 c -23.29,-25.0581 -50.46,-42.9488 -94.27,-42.9488 -59.97,0 -111.78,47.8668 -111.78,118.9098"
             inkscape:connector-curvature="0"
             id="path144"
             style="fill:#4f4c4c;fill-opacity:1;fill-rule:nonzero;stroke:none" /><path
             d="m 6013.69,158.238 0,26.043 c -19.2,4.86 -44.68,10.149 -77.3,10.149 -48.3,0 -75.18,-21.45 -75.18,-53.11 l 0,-0.898 c 0,-33.063 31.31,-52.3634 66.2,-52.3634 46.48,0 86.28,28.6914 86.28,70.1794 z m -175.68,-19.117 0,0.809 c 0,47.429 40.67,74.23 99.7,74.23 31.69,0 53.63,-3.949 75.5,-9.832 l 0,9.832 c 0,46.078 -28.14,69.738 -75.04,69.738 -27.76,0 -50.56,-7.617 -71.59,-18.308 l -8,19.23 c 25.02,11.621 49.6,19.731 80.93,19.731 30.81,0 55.39,-8.539 71.92,-25.121 15.18,-15.2 23.29,-36.258 23.29,-64.36 l 0,-142.1794 -21.51,0 0,38.0194 c -15.61,-21.9295 -43.81,-43.3788 -87.09,-43.3788 -42.52,0 -88.11,24.1485 -88.11,71.5898"
             inkscape:connector-curvature="0"
             id="path146"
             style="fill:#4f4c4c;fill-opacity:1;fill-rule:nonzero;stroke:none" /><path
             d="m 6084.69,101.57 13.02,17.34 c 24.9,-19.2303 52.67,-29.9295 81.74,-29.9295 30.85,0 54.99,17.0195 54.99,43.3785 l 0,0.922 c 0,26.789 -28.63,36.641 -60.34,45.539 -37.12,10.758 -78.23,22 -78.23,62.68 l 0,0.801 c 0,36.738 30.82,63.051 75.05,63.051 27.3,0 58.17,-9.832 80.93,-25.012 l -11.63,-18.309 c -20.98,13.879 -46.02,22.789 -70.12,22.789 -31.33,0 -51.92,-17.011 -51.92,-39.8 l 0,-0.93 c 0,-25.5 30.9,-34.899 63.54,-44.192 36.57,-10.32 75.01,-23.769 75.01,-63.968 l 0,-0.821 c 0,-40.7184 -34.82,-66.609 -78.63,-66.609 -33.12,0 -69.32,13.3516 -93.41,33.07"
             inkscape:connector-curvature="0"
             id="path148"
             style="fill:#4f4c4c;fill-opacity:1;fill-rule:nonzero;stroke:none" /><path
             d="m 6410.76,1506.79 c 8.2,0 12.87,4.31 12.87,10.37 0,6.8 -4.67,10.39 -12.87,10.39 l -15.38,0 0,-20.76 15.38,0 z m -27.55,31.48 28.6,0 c 13.98,0 24.33,-6.79 24.33,-20.03 0,-10.37 -6.08,-16.8 -14.67,-19.29 l 16.84,-23.98 -14.68,0 -15.04,21.81 -13.21,0 0,-21.81 -12.17,0 0,63.3 z m 79.39,-32.9 0,0.35 c 0,30.4 -23.6,55.45 -55.05,55.45 -31.11,0 -55.08,-25.39 -55.08,-55.8 l 0,-0.36 c 0,-30.39 23.58,-55.42 55.08,-55.42 31.1,0 55.05,25.38 55.05,55.78 z m -117.3,-0.36 0,0.36 c 0,33.98 27.55,62.58 62.25,62.58 35.04,0 62.21,-28.24 62.21,-62.23 l 0,-0.35 c 0,-33.98 -27.55,-62.57 -62.21,-62.57 -35.05,0 -62.25,28.24 -62.25,62.21"
             inkscape:connector-curvature="0"
             id="path150"
             style="fill:#4f4c4c;fill-opacity:1;fill-rule:nonzero;stroke:none" /><path
             d="m 6399.4,253.211 c 7.16,0 11.2,3.738 11.2,8.988 0,5.922 -4.04,9.02 -11.2,9.02 l -13.34,0 0,-18.008 13.34,0 z m -23.89,27.328 24.81,0 c 12.16,0 21.15,-5.898 21.15,-17.41 0,-8.988 -5.29,-14.578 -12.75,-16.758 l 14.62,-20.812 -12.74,0 -13.05,18.929 -11.49,0 0,-18.929 -10.55,0 0,54.98 z m 68.93,-28.578 0,0.32 c 0,26.391 -20.48,48.168 -47.81,48.168 -27.02,0 -47.86,-22.078 -47.86,-48.488 l 0,-0.32 c 0,-26.391 20.51,-48.153 47.86,-48.153 27.02,0 47.81,22.071 47.81,48.473 z m -101.88,-0.32 0,0.32 c 0,29.5 23.93,54.359 54.07,54.359 30.44,0 54.03,-24.55 54.03,-54.039 l 0,-0.32 c 0,-29.52 -23.92,-54.352 -54.03,-54.352 -30.44,0 -54.07,24.532 -54.07,54.032"
             inkscape:connector-curvature="0"
             id="path152"
             style="fill:#4f4c4c;fill-opacity:1;fill-rule:nonzero;stroke:none" /></g></g></g></g></svg>